<svg width="28" height="28" viewBox="0 0 28 28" fill="none" xmlns="http://www.w3.org/2000/svg">
<path fill-rule="evenodd" clip-rule="evenodd" d="M25.6866 0H2.08748C0.958677 0 0 0.892753 0 1.99252V25.6985C0 26.7995 0.629015 27.6923 1.7578 27.6923H25.3569C26.4869 27.6923 27.6923 26.7995 27.6923 25.6985V1.99252C27.6923 0.892753 26.8166 0 25.6866 0ZM25.6866 0H2.08748C0.958677 0 0 0.892753 0 1.99252V25.6985C0 26.7995 0.629015 27.6923 1.7578 27.6923H25.3569C26.4869 27.6923 27.6923 26.7995 27.6923 25.6985V1.99252C27.6923 0.892753 26.8166 0 25.6866 0ZM10.5494 10.5494H14.2774V12.4497H14.3182C14.8866 11.4251 16.5652 10.3846 18.6409 10.3846C22.6246 10.3846 23.7363 12.4997 23.7363 16.4175V23.7363H19.7802V17.1389C19.7802 15.3851 19.08 13.8462 17.4422 13.8462C15.4535 13.8462 14.5055 15.1925 14.5055 17.4026V23.7363H10.5494V10.5494ZM3.95605 23.7363H7.91215V10.5494H3.95605V23.7363ZM8.40662 5.93406C8.40677 6.25871 8.34292 6.5802 8.21877 6.8802C8.09477 7.18018 7.91277 7.45278 7.68322 7.68243C7.45374 7.91208 7.18128 8.09426 6.88137 8.2186C6.58148 8.34292 6.26003 8.40697 5.93537 8.40705C5.61072 8.40714 5.28925 8.34328 4.98928 8.21909C4.68931 8.09492 4.41674 7.91288 4.18714 7.68335C3.95754 7.45383 3.7754 7.18134 3.65112 6.88142C3.52685 6.58149 3.46288 6.26003 3.46285 5.93538C3.4628 5.27988 3.72311 4.6512 4.18654 4.18762C4.64997 3.72403 5.27855 3.46349 5.93406 3.46332C6.58955 3.46314 7.21828 3.72334 7.68195 4.18668C8.14569 4.65002 8.40631 5.27855 8.40662 5.93406Z" fill="#F5333F"/>
</svg>
