<svg width="199" height="32" viewBox="0 0 199 32" fill="none" xmlns="http://www.w3.org/2000/svg">
<path d="M3.79347 30.7817H4.35382V30.2213V12.5787L8.049 30.2939L8.14202 30.7397H8.59756H11.6851H12.1453L12.2348 30.2884L15.73 12.6535V30.2213V30.7817H16.2904H19.3362H19.8965V30.2213V1.27118V0.710818H19.3362H14.8355H14.3754L14.2859 1.16217L10.2408 21.5585L6.03786 1.1581L5.94571 0.710818H5.48903H0.988459H0.428101V1.27118V30.2213V30.7817H0.988459H3.79347ZM35.7422 30.7817H36.2046L36.2925 30.328L37.3349 24.9466H43.7159L44.7585 30.328L44.8464 30.7817H45.3086H48.5217H49.1993L49.0721 30.1161L43.5406 1.16601L43.4537 0.710818H42.9903H38.3065H37.843L37.7561 1.16601L32.2246 30.1161L32.0975 30.7817H32.775H35.7422ZM64.8441 30.7817H65.4045V30.2213V10.4489L71.7202 30.3906L71.8441 30.7817H72.2545H75.6037H76.164V30.2213V1.27118V0.710818H75.6037H72.7412H72.1808V1.27118V18.6107L66.5921 1.10079L66.4676 0.710818H66.0583H61.9607H61.4003V1.27118V30.2213V30.7817H61.9607H64.8441ZM93.0827 30.7817H93.643V30.2213V1.27118V0.710818H93.0827H89.8537H89.2934V1.27118V30.2213V30.7817H89.8537H93.0827ZM110.556 30.7817H111.117V30.2213V18.2481H117.197H117.758V17.6877V14.7572V14.1968H117.197H111.117V4.78307H118.814H119.375V4.22271V1.27118V0.710818H118.814H107.327H106.767V1.27118V30.2213V30.7817H107.327H110.556ZM136.56 26.1474L136.559 26.1463C136.095 25.5636 135.823 24.6741 135.823 23.3973V8.0953C135.823 6.83439 136.094 5.94607 136.561 5.35463C137.002 4.79514 137.676 4.47955 138.69 4.47955C139.725 4.47955 140.401 4.79729 140.833 5.35201C141.294 5.9437 141.563 6.83311 141.563 8.0953V23.3973C141.563 24.7285 141.287 25.6229 140.832 26.1776C140.394 26.7113 139.716 27.0182 138.69 27.0182C137.675 27.0182 137.001 26.7037 136.56 26.1474ZM170.843 30.7817H171.403V30.2213V27.2959V26.7356H170.843H163.145V1.27118V0.710818H162.585H159.356H158.796V1.27118V30.2213V30.7817H159.356H170.843ZM183.68 30.2213V30.7817H184.24H191.028C193.324 30.7817 195.143 30.1254 196.374 28.7225V28.7218C197.58 27.3414 198.145 25.432 198.145 23.0728V8.48255C198.145 6.10979 197.581 4.18781 196.376 2.79396V2.79329C195.146 1.37527 193.327 0.710818 191.028 0.710818H184.24H183.68V1.27118V30.2213ZM43.0579 21.0628H37.9532L40.4745 7.87775L43.0579 21.0628ZM131.531 8.27845V23.235C131.531 25.5774 132.117 27.4961 133.352 28.9239C134.608 30.3749 136.419 31.0643 138.69 31.0643C140.986 31.0643 142.815 30.3765 144.079 28.9251C145.323 27.4974 145.912 25.5782 145.912 23.235V8.27845C145.912 5.91317 145.324 3.98385 144.078 2.56151C142.814 1.11405 140.986 0.428223 138.69 0.428223C136.408 0.428223 134.592 1.11466 133.342 2.56383C132.112 3.98621 131.531 5.91461 131.531 8.27845ZM190.985 26.7356H188.034V4.78307H190.943C191.989 4.78307 192.679 5.08693 193.122 5.60953C193.58 6.14983 193.859 7.02032 193.859 8.32032V23.1983C193.859 24.4996 193.584 25.3712 193.13 25.9117C192.693 26.4332 192.015 26.7356 190.985 26.7356Z" fill="white" stroke="black" stroke-width="0.856229" stroke-linecap="round"/>
</svg>
