<svg width="24" height="19" viewBox="0 0 24 19" fill="none" xmlns="http://www.w3.org/2000/svg">
<path d="M7.249 18.7313C15.9484 18.7313 20.7059 11.5245 20.7059 5.27434C20.7059 5.06987 20.7059 4.86618 20.6924 4.66357C21.6182 3.99372 22.4175 3.1643 23.0524 2.2142C22.1893 2.59712 21.2738 2.84837 20.3361 2.95955C21.3232 2.36817 22.0618 1.43837 22.4147 0.343104C21.4864 0.893919 20.471 1.2821 19.4121 1.49093C18.6988 0.732642 17.7558 0.23052 16.7285 0.062258C15.7013 -0.105988 14.6472 0.0689962 13.7293 0.56015C12.8116 1.0513 12.0813 1.83124 11.6515 2.77929C11.2215 3.72726 11.1161 4.79064 11.3515 5.80464C9.47115 5.71034 7.63161 5.22172 5.95238 4.37064C4.27312 3.51941 2.79163 2.32457 1.60406 0.863705C0.999415 1.90497 0.814308 3.13754 1.08645 4.31049C1.35857 5.48341 2.06748 6.50849 3.06885 7.17726C2.31609 7.15464 1.57978 6.95141 0.922092 6.58449V6.6451C0.9224 7.73695 1.30034 8.79526 1.99186 9.64018C2.68337 10.4853 3.64586 11.0651 4.71614 11.2814C4.01991 11.4711 3.28948 11.4988 2.58091 11.3622C2.88309 12.3019 3.47142 13.1237 4.26362 13.7128C5.05583 14.3017 6.01223 14.6285 6.99931 14.6471C6.01854 15.4176 4.89566 15.9873 3.69468 16.3236C2.49368 16.6597 1.2382 16.7559 0 16.6066C2.16265 17.9948 4.67914 18.7314 7.249 18.7283" fill="#F5333F"/>
</svg>
